<?xml version="1.0" encoding="UTF-8" standalone="no"?>
<svg
   width="100%"
   height="100%"
   viewBox="0 0 500 500"
   version="1.1"
   xml:space="preserve"
   style="fill-rule:evenodd;clip-rule:evenodd;stroke-linejoin:round;stroke-miterlimit:2;"
   id="svg12"
   sodipodi:docname="play-button.svg"
   inkscape:version="1.2.2 (732a01da63, 2022-12-09)"
   xmlns:inkscape="http://www.inkscape.org/namespaces/inkscape"
   xmlns:sodipodi="http://sodipodi.sourceforge.net/DTD/sodipodi-0.dtd"
   xmlns="http://www.w3.org/2000/svg"
   xmlns:svg="http://www.w3.org/2000/svg"><sodipodi:namedview
   id="namedview14"
   pagecolor="#ffffff"
   bordercolor="#666666"
   borderopacity="1.0"
   inkscape:showpageshadow="2"
   inkscape:pageopacity="0.0"
   inkscape:pagecheckerboard="0"
   inkscape:deskcolor="#d1d1d1"
   showgrid="false"
   inkscape:zoom="2.054"
   inkscape:cx="187.926"
   inkscape:cy="249.75657"
   inkscape:window-width="3840"
   inkscape:window-height="2066"
   inkscape:window-x="2869"
   inkscape:window-y="-11"
   inkscape:window-maximized="1"
   inkscape:current-layer="svg12" />
    <ellipse
   style="fill:#4d4d4d;fill-rule:evenodd;stroke-width:1.00157;stroke-linecap:round;stroke-linejoin:round;stroke-miterlimit:10;filter:url(#filter381);stop-color:#000000"
   id="path361"
   cx="250"
   cy="472.45959"
   rx="225.17039"
   ry="18.013632" /><g
   id="Play_02">
        <path
   d="M250,25C374.181,25 475,125.819 475,250C475,374.181 374.181,475 250,475C125.819,475 25,374.181 25,250C25,125.819 125.819,25 250,25ZM341.499,241.407C344.528,243.21 346.384,246.475 346.384,250C346.384,253.525 344.528,256.79 341.499,258.593C310.248,277.195 236.585,321.042 204.73,340.003C201.639,341.843 197.799,341.881 194.672,340.103C191.547,338.326 189.615,335.006 189.615,331.411L189.615,168.589C189.615,164.994 191.547,161.674 194.672,159.897C197.799,158.119 201.639,158.157 204.73,159.997C236.585,178.958 310.248,222.805 341.499,241.407Z"
   style="fill:url(#_Linear1);"
   id="path2" />
    </g>
    <defs
   id="defs10">
        <linearGradient
   id="_Linear1"
   x1="0"
   y1="0"
   x2="1"
   y2="0"
   gradientUnits="userSpaceOnUse"
   gradientTransform="matrix(500,-500,500,500,0,500)"><stop
     offset="0"
     style="stop-color:rgb(44,180,226);stop-opacity:1"
     id="stop5" /><stop
     offset="1"
     style="stop-color:rgb(58,227,138);stop-opacity:1"
     id="stop7" /></linearGradient>
    <filter
   style="color-interpolation-filters:sRGB;"
   inkscape:label="Blur"
   id="filter381"
   x="-0.053292974"
   y="-0.66616217"
   width="1.1065859"
   height="2.3323243"><feGaussianBlur
     stdDeviation="10 10"
     result="blur"
     id="feGaussianBlur379" /></filter></defs>
</svg>
